<?xml version="1.0" encoding="UTF-8"?>
<svg width="217px" height="38px" viewBox="0 0 217 38" version="1.1" xmlns="http://www.w3.org/2000/svg" xmlns:xlink="http://www.w3.org/1999/xlink">
    <!-- Generator: sketchtool 51.2 (57519) - http://www.bohemiancoding.com/sketch -->
    <title>DD9E56AB-959C-45C5-9D6F-6F7E183EBCDF</title>
    <desc>Created with sketchtool.</desc>
    <defs></defs>
    <g id="Page-1" stroke="none" stroke-width="1" fill="none" fill-rule="evenodd">
        <g id="ixo-key-safe-02" transform="translate(-71.000000, -35.000000)">
            <g id="keysafe-logo" transform="translate(71.000000, 35.000000)">
                <path d="M51.1190476,29.5191144 C48.5577569,29.5191144 46.480767,27.4424623 46.480767,24.8807689 C46.480767,22.3190755 48.5577569,20.2424235 51.1190476,20.2424235 C53.6807052,20.2424235 55.7573282,22.3190755 55.7573282,24.8807689 C55.7573282,27.4424623 53.6807052,29.5191144 51.1190476,29.5191144 M51.1190476,11.7619048 C43.8736145,11.7619048 38,17.6352345 38,24.8807689 C38,32.1263034 43.8736145,38 51.1190476,38 C58.3644807,38 64.2380952,32.1263034 64.2380952,24.8807689 C64.2380952,17.6352345 58.3644807,11.7619048 51.1190476,11.7619048" id="Fill-2" fill="#00D2FF"></path>
                <polygon id="Fill-4" fill="#00D2FF" points="0 11.7619048 0 38 9.95238095 38 9.95238095 11.7619048 9.93033803 11.7619048"></polygon>
                <polygon id="Fill-6" fill="#00D2FF" points="24.8811358 18.3213368 18.3217037 11.7619048 11.7619048 11.7619048 11.7619048 18.3213368 18.3217037 24.8807689 11.7619048 31.440201 11.7619048 38 18.3217037 38 24.8811358 31.440201 31.4405679 38 31.4405679 37.9996331 31.4405679 38 38 38 38 31.440201 31.4405679 24.8807689 38 18.3213368 38 11.7619048 31.4405679 11.7619048"></polygon>
                <path d="M4.97619048,9.95238095 C2.22790999,9.95238095 0,7.72447096 0,4.97619048 C0,2.22790999 2.22790999,0 4.97619048,0 C7.72447096,0 9.95238095,2.22790999 9.95238095,4.97619048 C9.95238095,7.72447096 7.72447096,9.95238095 4.97619048,9.95238095" id="Fill-8" fill="#00D2FF"></path>
                <path d="M67.4047619,38 C65.6558561,38 64.2380952,36.5822391 64.2380952,34.8333333 C64.2380952,33.0844276 65.6558561,31.6666667 67.4047619,31.6666667 C69.1536677,31.6666667 70.5714286,33.0844276 70.5714286,34.8333333 C70.5714286,36.5822391 69.1536677,38 67.4047619,38" id="Fill-8" fill="#FFFFFF"></path>
                <path d="M80.2523362,12.0550678 L80.2523362,21.7660947 L81.3843703,21.7660947 L86.4237479,12.0550678 L93.0333663,12.0550678 L86.277679,24.0747539 L93.3985386,37.7068369 L86.7889202,37.7068369 L81.3843703,27.0430301 L80.2523362,27.0430301 L80.2523362,37.7068369 L74.1904762,37.7068369 L74.1904762,12.0550678 L80.2523362,12.0550678 Z M111.414811,37.7068369 L95.7489202,37.7068369 L95.7489202,12.0550678 L111.414811,12.0550678 L111.414811,17.2587124 L101.81078,17.2587124 L101.81078,22.0226124 L110.574915,22.0226124 L110.574915,27.226257 L101.81078,27.226257 L101.81078,32.5031923 L111.414811,32.5031923 L111.414811,37.7068369 Z M127.897361,37.7068369 L121.762466,37.7068369 L121.762466,27.702647 L113.874745,12.0550678 L120.630432,12.0550678 L124.720362,21.9126762 L124.939465,21.9126762 L129.065912,12.0550678 L135.785082,12.0550678 L127.897361,27.702647 L127.897361,37.7068369 Z M145.183289,38 C141.275945,38 138.208498,36.4608939 136.163533,35.2149508 L138.245015,30.6342777 C141.239428,32.0268023 143.393945,32.6497739 145.365875,32.6497739 C147.739495,32.6497739 148.72546,31.4771216 148.72546,30.1945331 C148.72546,25.5772147 136.930395,28.2889731 136.930395,19.2375632 C136.930395,14.4370178 139.924808,11.7619048 145.475427,11.7619048 C149.200184,11.7619048 152.012011,13.1544294 153.983941,14.4736632 L151.464252,18.8711093 C149.419288,17.6618117 147.593426,17.0388401 145.731047,17.0388401 C143.759117,17.0388401 142.846186,17.8083932 142.846186,19.0176909 C142.846186,22.7188747 154.714286,20.7033786 154.714286,29.9746608 C154.714286,34.9217877 151.792907,38 145.183289,38 Z" id="KeyS" fill="#FFFFFF"></path>
                <path d="M165.556783,11.7619048 L171.341727,11.7619048 L179.469938,37.0952381 L173.099178,37.0952381 L171.634635,32.1371429 L165.263875,32.1371429 L163.799332,37.0952381 L157.428571,37.0952381 L165.556783,11.7619048 Z M166.472122,26.9619048 L170.426387,26.9619048 L168.522482,19.6152381 L168.376028,19.6152381 L166.472122,26.9619048 Z M188.513489,37.0952381 L182.435637,37.0952381 L182.435637,11.7619048 L198.142857,11.7619048 L198.142857,16.9009524 L188.513489,16.9009524 L188.513489,22.2209524 L197.300745,22.2209524 L197.300745,27.36 L188.513489,27.36 L188.513489,37.0952381 Z" id="af" fill="#FFFFFF"></path>
                <polygon id="e" fill="#FFFFFF" points="216.238095 37.0952381 200.857143 37.0952381 200.857143 11.7619048 216.238095 11.7619048 216.238095 16.9009524 206.808747 16.9009524 206.808747 21.6057143 215.413475 21.6057143 215.413475 26.7447619 206.808747 26.7447619 206.808747 31.9561905 216.238095 31.9561905"></polygon>
            </g>
        </g>
    </g>
</svg>